<?xml version="1.0" standalone="no"?>
<!DOCTYPE svg PUBLIC "-//W3C//DTD SVG 20010904//EN"
 "http://www.w3.org/TR/2001/REC-SVG-20010904/DTD/svg10.dtd">
<svg version="1.0" xmlns="http://www.w3.org/2000/svg"
 width="1024.000000pt" height="1024.000000pt" viewBox="0 0 1024.000000 1024.000000"
 preserveAspectRatio="xMidYMid meet">
<metadata>
Created by potrace 1.11, written by Peter Selinger 2001-2013
</metadata>
<g transform="translate(0.000000,1024.000000) scale(0.100000,-0.100000)"
fill="#000000" stroke="none">
<path d="M4557 9742 c-107 -95 -172 -168 -244 -277 -26 -38 -72 -102 -102
-142 -189 -246 -282 -390 -396 -618 -89 -178 -88 -178 -207 -67 -116 107 -172
142 -376 235 -147 67 -180 78 -201 71 -15 -6 -27 -18 -29 -31 -2 -13 35 -100
87 -206 148 -298 146 -368 -11 -306 -68 27 -262 65 -403 79 -60 6 -135 18
-165 26 -144 41 -150 41 -177 10 -30 -35 -26 -55 28 -146 39 -66 79 -165 79
-195 0 -8 15 -59 33 -112 31 -96 32 -102 32 -273 0 -131 -5 -195 -18 -255 -25
-108 -36 -129 -71 -133 -26 -3 -47 14 -190 160 -155 157 -200 195 -406 348
-106 79 -132 90 -169 69 -48 -27 -39 -52 75 -224 170 -255 178 -271 279 -532
135 -347 160 -421 184 -558 42 -244 38 -304 -22 -333 -82 -40 -413 -56 -559
-28 -135 26 -281 100 -457 231 -104 77 -146 121 -168 175 -20 47 -62 90 -88
90 -58 0 -81 -80 -51 -178 8 -26 22 -74 32 -107 19 -68 83 -239 124 -335 16
-36 33 -91 39 -122 6 -32 28 -90 50 -130 22 -41 47 -93 56 -117 16 -45 137
-276 258 -491 39 -69 89 -158 111 -198 23 -40 56 -98 75 -130 19 -31 51 -87
72 -125 21 -37 50 -86 64 -110 79 -126 147 -253 152 -281 4 -25 -7 -62 -45
-152 -28 -65 -62 -148 -76 -183 -14 -36 -42 -85 -61 -110 -20 -25 -38 -56 -42
-68 -9 -36 19 -96 48 -107 49 -17 91 1 169 70 113 101 241 193 282 204 28 8
47 7 85 -6 72 -25 198 -90 235 -123 62 -53 187 -129 277 -166 50 -21 98 -46
107 -56 9 -10 28 -65 41 -121 21 -92 24 -127 24 -323 0 -121 -5 -247 -11 -280
-62 -345 -64 -473 -9 -825 5 -36 18 -101 28 -145 11 -44 27 -116 36 -160 31
-149 53 -205 129 -319 41 -61 83 -130 95 -153 18 -37 167 -194 274 -291 52
-47 55 -71 18 -137 -17 -30 -31 -63 -31 -74 0 -30 28 -51 65 -51 51 0 68 -31
55 -100 -15 -81 -13 -166 6 -184 19 -19 17 -19 49 -4 14 6 39 34 56 62 58 94
82 111 115 79 14 -15 16 -32 10 -137 -6 -96 -4 -125 7 -140 23 -31 62 -23 126
28 64 50 104 59 121 27 16 -32 12 -124 -11 -196 -27 -88 -23 -119 15 -123 23
-3 38 5 71 38 57 56 79 52 83 -15 6 -93 52 -109 125 -45 54 48 71 50 89 10 15
-35 10 -34 76 -15 40 12 61 27 94 65 45 52 67 61 88 35 20 -24 -2 -61 -52 -86
-24 -11 -62 -39 -84 -61 -23 -22 -86 -62 -140 -88 l-99 -48 1398 -1 1399 -1
-30 38 c-30 37 -89 130 -221 344 -39 64 -97 152 -128 195 -101 141 -103 165
-21 220 48 32 67 71 67 141 2 92 45 110 89 37 133 -221 194 -295 245 -295 32
0 65 44 72 96 22 177 76 408 111 477 14 27 46 36 70 19 6 -4 29 -35 52 -68 22
-34 55 -73 72 -88 94 -78 308 -172 417 -182 60 -5 71 -4 96 16 37 29 36 72 -4
130 -114 169 -200 460 -213 730 -8 140 1 175 44 175 18 0 37 -18 82 -81 73
-104 160 -183 257 -232 87 -45 154 -62 247 -62 70 0 99 10 126 44 28 33 21 58
-29 122 -27 33 -56 77 -65 99 -79 184 -154 418 -184 572 -8 43 -25 128 -38
188 -35 159 -43 258 -22 290 30 45 55 33 150 -69 128 -140 248 -205 296 -161
29 26 25 43 -22 116 -60 92 -104 211 -143 389 -48 221 -58 304 -57 487 1 161
1 162 46 321 25 87 64 204 86 258 23 54 54 133 70 174 15 41 42 104 58 140 39
87 130 403 147 515 7 50 26 158 41 240 27 146 28 160 29 530 1 413 2 417 54
340 33 -49 73 -55 102 -15 30 41 52 198 45 316 -6 95 -43 267 -81 373 -21 61
-20 91 4 91 23 0 56 -37 105 -118 19 -32 47 -64 61 -70 24 -11 29 -9 56 17 26
26 29 36 29 92 0 53 -6 75 -40 143 -57 117 -129 207 -223 282 -89 70 -237 148
-317 165 -48 10 -80 30 -80 49 0 17 32 40 68 49 20 5 82 19 137 31 152 34 166
38 186 56 39 35 13 106 -43 118 -13 3 -63 15 -113 26 -120 28 -281 39 -418 28
-118 -9 -184 -24 -279 -64 -53 -22 -135 -45 -387 -110 -121 -31 -131 -31 -131
2 0 21 33 58 156 177 204 198 254 237 394 307 136 68 173 103 168 159 -3 36
-3 36 -48 34 -81 -2 -324 -22 -352 -28 -15 -4 -111 -10 -215 -15 -223 -11
-291 -22 -387 -62 -39 -16 -83 -35 -97 -41 -28 -11 -59 -4 -59 14 0 6 41 53
90 104 50 51 90 102 90 112 0 10 -7 29 -16 42 -16 23 -19 23 -148 18 -112 -4
-147 -10 -242 -39 -147 -46 -409 -192 -609 -341 -49 -37 -100 -70 -113 -73
-31 -9 -57 17 -81 81 -43 115 -99 212 -184 318 -94 119 -110 136 -197 208
-127 106 -324 219 -383 219 -39 0 -84 -46 -92 -96 -31 -197 -83 -329 -185
-466 -41 -56 -55 -68 -78 -68 -16 0 -36 8 -45 18 -31 34 -178 413 -213 547
-48 183 -82 736 -55 891 10 53 9 69 -5 103 -14 36 -20 41 -48 40 -24 0 -52
-19 -129 -87z m1903 -3684 c21 -29 81 -109 132 -176 177 -236 233 -326 288
-467 17 -44 42 -105 57 -135 113 -240 183 -676 183 -1155 0 -283 -24 -494 -76
-660 -22 -69 -105 -384 -150 -570 -21 -85 -181 -589 -209 -657 -13 -31 -27
-73 -31 -92 -10 -56 36 -95 155 -131 68 -21 97 -35 109 -53 15 -23 14 -28 -19
-89 -19 -35 -52 -86 -75 -114 -22 -27 -62 -87 -89 -132 -32 -54 -81 -115 -144
-179 -93 -93 -98 -96 -158 -108 -79 -16 -92 -25 -104 -80 -13 -57 -30 -75 -89
-95 -36 -12 -60 -30 -94 -70 -57 -66 -230 -163 -309 -172 -42 -5 -52 -11 -73
-43 -42 -63 -106 -82 -203 -59 -43 10 -45 9 -80 -25 -45 -44 -158 -86 -232
-86 -30 -1 -79 -9 -109 -20 -75 -26 -174 -26 -220 0 -79 45 -73 45 -126 5 -42
-32 -53 -36 -84 -30 -19 3 -65 10 -102 14 -60 6 -72 11 -106 44 -33 32 -44 37
-84 37 -42 0 -50 4 -80 40 -28 34 -41 41 -93 51 -32 6 -81 22 -108 35 -82 42
-359 233 -417 288 -30 29 -84 69 -119 90 -102 59 -238 192 -344 334 -150 201
-168 249 -226 592 -66 391 -64 366 -46 566 8 98 20 206 25 239 5 33 12 125 16
205 5 132 17 209 45 298 8 23 28 44 70 73 97 65 156 89 225 89 71 0 85 -11
110 -84 15 -43 15 -48 0 -71 -19 -29 -31 -32 -155 -39 -102 -6 -154 -27 -159
-62 -2 -12 4 -27 13 -34 21 -18 162 -15 208 5 20 8 56 15 79 15 114 0 244 35
309 82 l42 30 -7 61 c-3 33 -17 85 -31 115 -30 66 -31 78 -4 92 16 9 28 7 57
-8 55 -28 93 -85 156 -234 83 -197 93 -293 52 -501 -47 -235 -56 -288 -56
-325 0 -20 -9 -66 -21 -102 -22 -71 -36 -216 -25 -273 13 -70 100 -127 192
-127 35 0 181 -68 188 -87 11 -28 -5 -36 -62 -30 -61 7 -90 -4 -157 -58 -60
-48 -73 -53 -171 -61 -49 -4 -116 -15 -149 -25 -33 -10 -73 -19 -88 -19 -48 0
-82 -26 -176 -134 -77 -90 -91 -111 -91 -140 0 -60 27 -64 115 -15 73 40 77
41 121 30 26 -7 71 -9 108 -5 45 5 77 2 112 -9 27 -9 77 -21 111 -27 84 -15
211 -74 327 -153 115 -79 162 -92 303 -84 182 10 303 46 612 183 203 89 234
111 299 209 176 268 216 319 317 410 45 40 89 91 108 123 62 110 97 131 250
150 83 10 117 30 117 66 -1 53 -36 66 -216 78 -84 6 -165 7 -179 4 -13 -3 -48
-27 -77 -52 l-51 -46 -76 8 c-126 14 -152 10 -223 -30 -56 -31 -74 -36 -129
-36 -85 0 -165 -20 -230 -57 -30 -17 -100 -44 -155 -62 -84 -25 -107 -37 -133
-66 -17 -20 -31 -46 -31 -59 0 -47 122 -86 269 -86 62 0 65 1 112 45 45 42 52
45 101 45 117 0 157 -21 106 -54 -13 -8 -84 -35 -158 -60 -74 -25 -178 -61
-230 -82 -184 -70 -511 -164 -573 -164 -43 0 -62 21 -52 57 3 15 48 68 101
121 138 135 157 175 112 226 -24 25 -45 31 -342 92 -201 41 -239 79 -202 201
32 106 55 217 71 343 9 69 23 176 32 239 17 111 17 116 -4 241 -32 186 -96
332 -208 470 -35 44 -74 98 -85 120 -28 56 -55 69 -156 81 -49 5 -123 20 -164
34 -41 14 -109 32 -150 40 -41 9 -133 32 -205 52 -79 22 -158 37 -200 39 -38
1 -73 3 -77 3 -18 2 -48 43 -48 64 0 31 162 179 344 316 193 145 321 279 499
521 41 56 70 86 85 88 34 5 33 -14 -14 -200 -19 -75 -34 -146 -34 -159 0 -27
27 -59 49 -59 40 0 135 99 310 323 65 83 89 107 108 107 13 0 26 -7 30 -16 3
-9 0 -67 -7 -129 -12 -105 -12 -115 6 -151 28 -57 51 -56 142 7 259 177 678
569 911 852 62 76 124 143 136 149 44 20 73 2 122 -74 50 -78 190 -361 219
-447 23 -63 71 -111 114 -111 53 0 78 19 96 74 19 61 56 129 135 251 55 86
185 344 215 429 31 86 66 90 124 14z m1477 -1153 c134 -56 265 -240 295 -414
11 -65 10 -72 -21 -172 -33 -103 -54 -152 -157 -364 -127 -262 -282 -433 -324
-356 -13 25 -13 92 0 125 5 14 59 74 120 133 132 127 192 204 254 327 74 144
72 212 -11 366 -91 169 -142 218 -215 206 -22 -4 -53 -13 -69 -21 -37 -19 -75
-19 -83 1 -15 39 54 136 119 165 49 23 47 23 92 4z m-5057 -80 c18 -22 -4
-175 -47 -328 -18 -64 -28 -76 -48 -56 -14 15 -65 197 -65 234 0 12 20 50 44
83 59 80 90 98 116 67z m5039 -218 c8 -7 30 -46 49 -87 44 -93 56 -212 27
-256 -16 -25 -20 -26 -69 -19 -28 4 -80 8 -116 9 -60 1 -65 3 -78 29 -8 15
-16 60 -19 100 -6 81 6 120 53 176 56 66 110 83 153 48z m-68 -507 c41 -23 4
-124 -53 -144 -38 -13 -58 6 -58 58 0 44 12 66 45 84 25 14 41 15 66 2z
m-4626 -79 c112 -33 136 -43 250 -104 66 -35 81 -47 83 -69 4 -34 -14 -43 -96
-52 -115 -13 -225 -42 -277 -74 -103 -63 -123 -53 -154 79 -11 47 -29 109 -41
138 -25 63 -25 97 -2 111 26 17 125 4 237 -29z m461 -342 c3 -6 -1 -18 -10
-27 -15 -15 -17 -15 -32 0 -19 19 -11 38 16 38 10 0 22 -5 26 -11z m2008
-1365 c9 -24 -22 -54 -56 -54 -15 0 -28 2 -28 4 0 2 -3 11 -6 19 -3 8 2 22 11
31 22 21 71 21 79 0z m-156 -267 c2 -11 -8 -22 -30 -31 -18 -8 -78 -35 -133
-59 -55 -25 -147 -59 -205 -77 -58 -18 -163 -53 -235 -77 -302 -104 -463 -155
-506 -160 -53 -6 -89 9 -89 37 0 24 23 37 92 51 73 16 367 95 401 108 15 6 58
18 95 26 85 19 461 146 533 180 58 27 72 27 77 2z m-1274 -189 c24 -40 -77
-89 -112 -55 -14 15 -14 18 4 38 36 40 88 49 108 17z m1091 -58 c19 -31 -69
-84 -245 -150 -41 -16 -113 -45 -160 -65 -91 -39 -239 -79 -332 -91 -64 -7
-108 11 -108 45 0 23 21 32 187 80 76 22 233 71 348 110 116 38 219 71 230 74
36 8 74 7 80 -3z m1145 -845 c10 -12 11 -41 6 -113 -10 -140 -19 -172 -59
-207 -39 -33 -274 -158 -377 -199 -89 -36 -347 -99 -376 -92 -29 8 -40 27 -49
88 -6 42 -5 48 18 63 24 15 30 15 92 -4 86 -27 123 -27 152 1 29 27 29 43 -2
80 -52 62 -18 99 92 99 91 0 136 13 192 57 26 21 66 44 89 51 61 20 121 76
148 138 25 56 49 68 74 38z m-1016 -576 c19 -27 10 -49 -20 -49 -17 0 -25 7
-30 24 -11 46 23 63 50 25z m-259 -33 c20 -30 10 -56 -21 -56 -28 0 -57 39
-48 64 9 24 51 20 69 -8z m-257 -18 c32 -32 0 -84 -37 -61 -22 14 -25 38 -6
57 20 19 27 20 43 4z"/>
<path d="M5715 4852 c-27 -10 -111 -56 -185 -101 -74 -46 -211 -121 -305 -167
-93 -46 -242 -125 -330 -175 -88 -51 -189 -107 -225 -126 -109 -59 -122 -89
-66 -150 31 -34 38 -37 88 -37 32 0 85 10 126 24 102 35 109 24 52 -82 -39
-74 -44 -90 -43 -146 1 -76 21 -112 61 -112 44 0 52 16 52 107 0 78 2 84 30
117 17 19 45 39 63 45 87 28 338 40 409 21 45 -13 58 -34 58 -92 0 -24 7 -68
16 -98 27 -96 28 -117 6 -129 -23 -12 -196 -7 -282 9 -127 23 -159 24 -166 5
-8 -21 19 -45 50 -45 12 0 48 -12 81 -26 85 -36 304 -52 412 -29 42 8 88 15
103 15 42 0 242 69 268 93 12 11 22 29 22 39 0 14 -8 18 -38 18 -49 0 -80 22
-88 65 -15 80 17 108 95 80 131 -46 163 27 44 101 -235 146 -372 205 -504 219
-102 11 -145 0 -189 -47 -34 -37 -42 -41 -111 -49 -103 -11 -179 -11 -179 1 0
19 54 62 107 85 28 13 75 42 105 66 29 23 86 57 125 76 40 18 88 46 105 61 18
15 60 48 93 72 33 24 76 58 95 74 49 42 191 106 233 106 69 0 228 -85 331
-177 46 -41 52 -44 100 -41 47 3 51 5 54 30 4 37 -17 73 -90 148 -112 116
-219 159 -413 166 -100 4 -128 2 -170 -14z m0 -852 c19 -37 19 -49 -2 -72 -23
-25 -48 -22 -72 8 -38 48 -22 94 31 94 20 0 31 -8 43 -30z"/>
<path d="M5055 1199 c-99 -22 -222 -57 -246 -70 -23 -12 -25 -45 -3 -53 33
-13 103 -5 161 18 34 13 100 29 148 35 99 14 133 25 141 46 18 47 -58 56 -201
24z"/>
</g>
</svg>
